# Blender 3.4.1
# www.blender.org
mtllib CornellBox-Original.mtl
o CornellBox-Original
v -0.187789 -0.000000 0.184070
v 0.185929 -0.000000 0.184070
v 0.185929 0.000000 -0.193366
v -0.184070 0.000000 -0.193366
v -0.189648 0.369999 0.184070
v -0.189648 0.369999 -0.193366
v 0.185929 0.369999 -0.193366
v 0.185929 0.369999 0.184070
v -0.184070 0.000000 -0.193366
v 0.185929 0.000000 -0.193366
v 0.185929 0.369999 -0.193366
v -0.189648 0.369999 -0.193366
v 0.185929 0.000000 -0.193366
v 0.185929 -0.000000 0.184070
v 0.185929 0.369999 0.184070
v 0.185929 0.369999 -0.193366
v -0.187789 -0.000000 0.184070
v -0.184070 0.000000 -0.193366
v -0.189648 0.369999 -0.193366
v -0.189648 0.369999 0.184070
v 0.098543 0.111558 0.139447
v 0.130151 0.111558 0.031608
v 0.024171 0.111558 0.000000
v -0.009296 0.111558 0.105980
v -0.009296 -0.000000 0.105980
v -0.009296 0.111558 0.105980
v 0.024171 0.111558 0.000000
v 0.024171 0.000000 0.000000
v 0.098543 -0.000000 0.139447
v 0.098543 0.111558 0.139447
v -0.009296 0.111558 0.105980
v -0.009296 -0.000000 0.105980
v 0.130151 -0.000000 0.031608
v 0.130151 0.111558 0.031608
v 0.098543 0.111558 0.139447
v 0.098543 -0.000000 0.139447
v 0.024171 0.000000 0.000000
v 0.024171 0.111558 0.000000
v 0.130151 0.111558 0.031608
v 0.130151 -0.000000 0.031608
v -0.098543 0.223115 0.016734
v 0.007437 0.223115 -0.016734
v -0.026030 0.223115 -0.124573
v -0.132010 0.223115 -0.091105
v -0.098543 -0.000000 0.016734
v -0.098543 0.223115 0.016734
v -0.132010 0.223115 -0.091105
v -0.132010 0.000000 -0.091105
v -0.132010 0.000000 -0.091105
v -0.132010 0.223115 -0.091105
v -0.026030 0.223115 -0.124573
v -0.026030 0.000000 -0.124573
v -0.026030 0.000000 -0.124573
v -0.026030 0.223115 -0.124573
v 0.007437 0.223115 -0.016734
v 0.007437 0.000000 -0.016734
v 0.007437 0.000000 -0.016734
v 0.007437 0.223115 -0.016734
v -0.098543 0.223115 0.016734
v -0.098543 -0.000000 0.016734
v -0.044623 0.368140 0.029749
v -0.044623 0.368140 -0.040904
v 0.042764 0.368140 -0.040904
v 0.042764 0.368140 0.029749
vn -0.0000 1.0000 -0.0000
vn -0.0000 -1.0000 -0.0000
vn -0.0000 -0.0000 1.0000
vn -1.0000 -0.0000 -0.0000
vn 1.0000 0.0050 -0.0000
vn -0.9536 -0.0000 -0.3011
vn -0.2964 -0.0000 0.9551
vn 0.9596 -0.0000 0.2813
vn 0.2858 -0.0000 -0.9583
vn -0.9551 -0.0000 0.2964
vn -0.3011 -0.0000 -0.9536
vn 0.9551 -0.0000 -0.2964
vn 0.3011 -0.0000 0.9536
vn 0.9998 0.0151 0.0099
s 0
g CornellBox-Original_floor
usemtl floor
f 2//1 4//1 1//1
f 2//1 3//1 4//1
g CornellBox-Original_ceiling
usemtl ceiling
f 6//2 8//2 5//2
f 6//2 7//2 8//2
g CornellBox-Original_backWall
usemtl backWall
f 9//3 11//3 12//3
f 9//3 10//3 11//3
g CornellBox-Original_rightWall
usemtl rightWall
f 14//4 16//4 13//4
f 14//4 15//4 16//4
g CornellBox-Original_leftWall
usemtl leftWall
f 17//5 19//5 20//5
f 17//14 18//14 19//14
g CornellBox-Original_shortBox
usemtl shortBox
f 21//1 23//1 24//1
f 26//6 28//6 25//6
f 30//7 32//7 29//7
f 34//8 36//8 33//8
f 38//9 40//9 37//9
f 21//1 22//1 23//1
f 26//6 27//6 28//6
f 30//7 31//7 32//7
f 34//8 35//8 36//8
f 38//9 39//9 40//9
g CornellBox-Original_tallBox
usemtl tallBox
f 42//1 44//1 41//1
f 46//10 48//10 45//10
f 50//11 52//11 49//11
f 54//12 56//12 53//12
f 58//13 60//13 57//13
f 42//1 43//1 44//1
f 46//10 47//10 48//10
f 50//11 51//11 52//11
f 54//12 55//12 56//12
f 58//13 59//13 60//13
g CornellBox-Original_light
usemtl light
f 62//2 64//2 61//2
f 62//2 63//2 64//2
