# Blender 3.4.1
# www.blender.org
mtllib untitled.mtl
o CornellBox-Original
v -0.187789 -0.000000 0.184070
v 0.185929 -0.000000 0.184070
v 0.185929 0.000000 -0.193366
v -0.184070 0.000000 -0.193366
v -0.189648 0.369999 0.184070
v -0.189648 0.369999 -0.193366
v 0.185929 0.369999 -0.193366
v 0.185929 0.369999 0.184070
v -0.184070 0.000000 -0.193366
v 0.185929 0.000000 -0.193366
v 0.185929 0.369999 -0.193366
v -0.189648 0.369999 -0.193366
v 0.185929 0.000000 -0.193366
v 0.185929 -0.000000 0.184070
v 0.185929 0.369999 0.184070
v 0.185929 0.369999 -0.193366
v -0.187789 -0.000000 0.184070
v -0.184070 0.000000 -0.193366
v -0.189648 0.369999 -0.193366
v -0.189648 0.369999 0.184070
v 0.098543 0.111558 0.139447
v 0.130151 0.111558 0.031608
v 0.024171 0.111558 0.000000
v -0.009296 0.111558 0.105980
v -0.009296 -0.000000 0.105980
v -0.009296 0.111558 0.105980
v 0.024171 0.111558 0.000000
v 0.024171 0.000000 0.000000
v 0.098543 -0.000000 0.139447
v 0.098543 0.111558 0.139447
v -0.009296 0.111558 0.105980
v -0.009296 -0.000000 0.105980
v 0.130151 -0.000000 0.031608
v 0.130151 0.111558 0.031608
v 0.098543 0.111558 0.139447
v 0.098543 -0.000000 0.139447
v 0.024171 0.000000 0.000000
v 0.024171 0.111558 0.000000
v 0.130151 0.111558 0.031608
v 0.130151 -0.000000 0.031608
v -0.098543 0.223115 0.016734
v 0.007437 0.223115 -0.016734
v -0.026030 0.223115 -0.124573
v -0.132010 0.223115 -0.091105
v -0.098543 -0.000000 0.016734
v -0.098543 0.223115 0.016734
v -0.132010 0.223115 -0.091105
v -0.132010 0.000000 -0.091105
v -0.132010 0.000000 -0.091105
v -0.132010 0.223115 -0.091105
v -0.026030 0.223115 -0.124573
v -0.026030 0.000000 -0.124573
v -0.026030 0.000000 -0.124573
v -0.026030 0.223115 -0.124573
v 0.007437 0.223115 -0.016734
v 0.007437 0.000000 -0.016734
v 0.007437 0.000000 -0.016734
v 0.007437 0.223115 -0.016734
v -0.098543 0.223115 0.016734
v -0.098543 -0.000000 0.016734
v -0.044623 0.368140 0.029749
v -0.044623 0.368140 -0.040904
v 0.042764 0.368140 -0.040904
v 0.042764 0.368140 0.029749
vn -0.0000 1.0000 -0.0000
vn -0.0000 -1.0000 -0.0000
vn -0.0000 -0.0000 1.0000
vn -1.0000 -0.0000 -0.0000
vn 1.0000 0.0050 -0.0000
vn 0.9998 0.0151 0.0099
vn -0.9536 -0.0000 -0.3011
vn -0.2964 -0.0000 0.9551
vn 0.9596 -0.0000 0.2813
vn 0.2858 -0.0000 -0.9583
vn -0.9551 -0.0000 0.2964
vn -0.3011 -0.0000 -0.9536
vn 0.9551 -0.0000 -0.2964
vn 0.3011 -0.0000 0.9536
s 0
g CornellBox-Original_floor.001
usemtl floor.001
f 2//1 4//1 1//1
f 2//1 3//1 4//1
g CornellBox-Original_ceiling.001
usemtl ceiling.001
f 6//2 8//2 5//2
f 6//2 7//2 8//2
g CornellBox-Original_backWall.001
usemtl backWall.001
f 9//3 11//3 12//3
f 9//3 10//3 11//3
g CornellBox-Original_rightWall.001
usemtl rightWall.001
f 14//4 16//4 13//4
f 14//4 15//4 16//4
g CornellBox-Original_leftWall.001
usemtl leftWall.001
f 17//5 19//5 20//5
f 17//6 18//6 19//6
g CornellBox-Original_shortBox.001
usemtl shortBox.001
f 21//1 23//1 24//1
f 26//7 28//7 25//7
f 30//8 32//8 29//8
f 34//9 36//9 33//9
f 38//10 40//10 37//10
f 21//1 22//1 23//1
f 26//7 27//7 28//7
f 30//8 31//8 32//8
f 34//9 35//9 36//9
f 38//10 39//10 40//10
g CornellBox-Original_tallBox.001
usemtl tallBox.001
f 42//1 44//1 41//1
f 46//11 48//11 45//11
f 50//12 52//12 49//12
f 54//13 56//13 53//13
f 58//14 60//14 57//14
f 42//1 43//1 44//1
f 46//11 47//11 48//11
f 50//12 51//12 52//12
f 54//13 55//13 56//13
f 58//14 59//14 60//14
g CornellBox-Original_light.001
usemtl light.001
f 62//2 64//2 61//2
f 62//2 63//2 64//2
o Cube
v -0.007224 0.347455 0.007224
v -0.007224 0.361903 0.007224
v -0.007224 0.347455 -0.007224
v -0.007224 0.361903 -0.007224
v 0.007224 0.347455 0.007224
v 0.007224 0.361903 0.007224
v 0.007224 0.347455 -0.007224
v 0.007224 0.361903 -0.007224
vn -1.0000 -0.0000 -0.0000
vn -0.0000 -0.0000 -1.0000
vn 1.0000 -0.0000 -0.0000
vn -0.0000 -0.0000 1.0000
vn -0.0000 -1.0000 -0.0000
vn -0.0000 1.0000 -0.0000
vt 0.375000 0.000000
vt 0.375000 1.000000
vt 0.125000 0.750000
vt 0.625000 0.000000
vt 0.625000 1.000000
vt 0.875000 0.750000
vt 0.125000 0.500000
vt 0.375000 0.250000
vt 0.625000 0.250000
vt 0.875000 0.500000
vt 0.375000 0.750000
vt 0.625000 0.750000
vt 0.375000 0.500000
vt 0.625000 0.500000
s 0
g Cube_backWall
usemtl backWall
f 66/4/15 67/8/15 65/1/15
f 68/9/16 71/13/16 67/8/16
f 72/14/17 69/11/17 71/13/17
f 70/12/18 65/2/18 69/11/18
f 71/13/19 65/3/19 67/7/19
f 68/10/20 70/12/20 72/14/20
f 66/4/15 68/9/15 67/8/15
f 68/9/16 72/14/16 71/13/16
f 72/14/17 70/12/17 69/11/17
f 70/12/18 66/5/18 65/2/18
f 71/13/19 69/11/19 65/3/19
f 68/10/20 66/6/20 70/12/20
