# Blender 3.4.1
# www.blender.org
mtllib test.mtl
o Cone
v 0.037424 0.926688 -0.059833
v -0.031274 0.931265 -0.081113
v -0.095701 0.927826 -0.113214
v -0.153382 0.916504 -0.154903
v -0.202100 0.897735 -0.204576
v -0.239982 0.872239 -0.260326
v -0.265573 0.840997 -0.320010
v -0.277890 0.805208 -0.381334
v -0.276459 0.766249 -0.441942
v -0.261335 0.725616 -0.499505
v -0.233099 0.684872 -0.551809
v -0.192837 0.645581 -0.596846
v -0.142095 0.609253 -0.632885
v -0.082824 0.577286 -0.658541
v -0.017302 0.550907 -0.672827
v 0.051955 0.531129 -0.675195
v 0.122283 0.518714 -0.665553
v 0.190981 0.514138 -0.644273
v 0.255408 0.517577 -0.612172
v 0.313089 0.528898 -0.570484
v 0.361806 0.547667 -0.520810
v 0.399689 0.573163 -0.465060
v 0.425280 0.604406 -0.405376
v 0.437597 0.640194 -0.344052
v 0.436166 0.679153 -0.283444
v 0.421042 0.719786 -0.225882
v 0.392806 0.760531 -0.173577
v 0.352544 0.799822 -0.128540
v 0.301802 0.836149 -0.092501
v 0.242531 0.868116 -0.066846
v 0.177008 0.894496 -0.052560
v 0.107752 0.914273 -0.050192
v -0.079853 0.117299 0.022693
vn -0.2847 0.1380 0.9486
vn -0.4476 0.1394 0.8833
vn -0.5970 0.1213 0.7930
vn -0.7272 0.0845 0.6812
vn -0.8331 0.0303 0.5522
vn -0.9108 -0.0391 0.4110
vn -0.9572 -0.1211 0.2629
vn -0.9705 -0.2126 0.1137
vn -0.9502 -0.3100 -0.0309
vn -0.8972 -0.4096 -0.1653
vn -0.8134 -0.5075 -0.2844
vn -0.7020 -0.6000 -0.3836
vn -0.5674 -0.6836 -0.4591
vn -0.4147 -0.7550 -0.5080
vn -0.2498 -0.8115 -0.5283
vn -0.0790 -0.8508 -0.5194
vn 0.0911 -0.8716 -0.4816
vn 0.2540 -0.8730 -0.4163
vn 0.4034 -0.8550 -0.3260
vn 0.5336 -0.8181 -0.2142
vn 0.6396 -0.7640 -0.0852
vn 0.7173 -0.6946 0.0560
vn 0.7636 -0.6125 0.2041
vn 0.7770 -0.5211 0.3533
vn 0.7567 -0.4237 0.4979
vn 0.7036 -0.3241 0.6323
vn 0.6198 -0.2262 0.7514
vn 0.5085 -0.1336 0.8506
vn 0.3739 -0.0501 0.9261
vn 0.2212 0.0213 0.9750
vn 0.2172 0.8234 -0.5242
vn 0.0562 0.0778 0.9954
vn -0.1146 0.1172 0.9865
vt 0.250000 0.490000
vt 0.750000 0.490000
vt 0.296822 0.485388
vt 0.796822 0.485388
vt 0.341844 0.471731
vt 0.841844 0.471731
vt 0.383337 0.449553
vt 0.883337 0.449553
vt 0.419706 0.419706
vt 0.919706 0.419706
vt 0.449553 0.383337
vt 0.949553 0.383337
vt 0.471731 0.341844
vt 0.971731 0.341844
vt 0.485388 0.296822
vt 0.985388 0.296822
vt 0.490000 0.250000
vt 0.990000 0.250000
vt 0.485388 0.203178
vt 0.985388 0.203178
vt 0.471731 0.158156
vt 0.971731 0.158156
vt 0.449553 0.116663
vt 0.949553 0.116663
vt 0.419706 0.080294
vt 0.919706 0.080294
vt 0.383337 0.050447
vt 0.883337 0.050447
vt 0.341844 0.028269
vt 0.841844 0.028269
vt 0.296822 0.014612
vt 0.796822 0.014612
vt 0.250000 0.010000
vt 0.750000 0.010000
vt 0.203178 0.014612
vt 0.703178 0.014612
vt 0.158156 0.028269
vt 0.658156 0.028269
vt 0.116663 0.050447
vt 0.616663 0.050447
vt 0.080294 0.080294
vt 0.580294 0.080294
vt 0.050447 0.116663
vt 0.550447 0.116663
vt 0.028269 0.158156
vt 0.528269 0.158156
vt 0.014612 0.203178
vt 0.514612 0.203178
vt 0.010000 0.250000
vt 0.510000 0.250000
vt 0.014612 0.296822
vt 0.514612 0.296822
vt 0.028269 0.341844
vt 0.528269 0.341844
vt 0.050447 0.383337
vt 0.550447 0.383337
vt 0.080294 0.419706
vt 0.580294 0.419706
vt 0.116663 0.449553
vt 0.616663 0.449553
vt 0.158156 0.471731
vt 0.658156 0.471731
vt 0.203178 0.485388
vt 0.703178 0.485388
vt 0.250000 0.250000
s 0
f 1/1/1 2/3/1 33/65/1
f 2/3/2 3/5/2 33/65/2
f 3/5/3 4/7/3 33/65/3
f 4/7/4 5/9/4 33/65/4
f 5/9/5 6/11/5 33/65/5
f 6/11/6 7/13/6 33/65/6
f 7/13/7 8/15/7 33/65/7
f 8/15/8 9/17/8 33/65/8
f 9/17/9 10/19/9 33/65/9
f 10/19/10 11/21/10 33/65/10
f 11/21/11 12/23/11 33/65/11
f 12/23/12 13/25/12 33/65/12
f 13/25/13 14/27/13 33/65/13
f 14/27/14 15/29/14 33/65/14
f 15/29/15 16/31/15 33/65/15
f 16/31/16 17/33/16 33/65/16
f 17/33/17 18/35/17 33/65/17
f 18/35/18 19/37/18 33/65/18
f 19/37/19 20/39/19 33/65/19
f 20/39/20 21/41/20 33/65/20
f 21/41/21 22/43/21 33/65/21
f 22/43/22 23/45/22 33/65/22
f 23/45/23 24/47/23 33/65/23
f 24/47/24 25/49/24 33/65/24
f 25/49/25 26/51/25 33/65/25
f 26/51/26 27/53/26 33/65/26
f 27/53/27 28/55/27 33/65/27
f 28/55/28 29/57/28 33/65/28
f 29/57/29 30/59/29 33/65/29
f 30/59/30 31/61/30 33/65/30
f 16/32/31 32/64/31 24/48/31
f 31/61/32 32/63/32 33/65/32
f 32/63/33 1/1/33 33/65/33
f 32/64/31 2/4/31 1/2/31
f 2/4/31 4/8/31 3/6/31
f 4/8/31 6/12/31 5/10/31
f 6/12/31 8/16/31 7/14/31
f 8/16/31 10/20/31 9/18/31
f 10/20/31 12/24/31 11/22/31
f 12/24/31 14/28/31 13/26/31
f 14/28/31 16/32/31 15/30/31
f 16/32/31 18/36/31 17/34/31
f 18/36/31 20/40/31 19/38/31
f 20/40/31 22/44/31 21/42/31
f 22/44/31 24/48/31 23/46/31
f 24/48/31 26/52/31 25/50/31
f 26/52/31 28/56/31 27/54/31
f 28/56/31 30/60/31 29/58/31
f 30/60/31 32/64/31 31/62/31
f 32/64/31 4/8/31 2/4/31
f 4/8/31 8/16/31 6/12/31
f 8/16/31 12/24/31 10/20/31
f 12/24/31 16/32/31 14/28/31
f 16/32/31 20/40/31 18/36/31
f 20/40/31 24/48/31 22/44/31
f 24/48/31 28/56/31 26/52/31
f 28/56/31 32/64/31 30/60/31
f 32/64/31 8/16/31 4/8/31
f 8/16/31 16/32/31 12/24/31
f 16/32/31 24/48/31 20/40/31
f 24/48/31 32/64/31 28/56/31
f 32/64/31 16/32/31 8/16/31
o Cone.001
v 0.000000 -0.171093 -0.171093
v 0.033379 -0.171093 -0.167805
v 0.065474 -0.171093 -0.158069
v 0.095054 -0.171093 -0.142258
v 0.120981 -0.171093 -0.120981
v 0.142258 -0.171093 -0.095054
v 0.158069 -0.171093 -0.065474
v 0.167805 -0.171093 -0.033379
v 0.171093 -0.171093 0.000000
v 0.167805 -0.171093 0.033379
v 0.158069 -0.171093 0.065474
v 0.142258 -0.171093 0.095054
v 0.120981 -0.171093 0.120981
v 0.095054 -0.171093 0.142258
v 0.065474 -0.171093 0.158069
v 0.033379 -0.171093 0.167805
v 0.000000 -0.171093 0.171093
v -0.033379 -0.171093 0.167805
v -0.065474 -0.171093 0.158069
v -0.095054 -0.171093 0.142258
v -0.120981 -0.171093 0.120981
v -0.142258 -0.171093 0.095054
v -0.158069 -0.171093 0.065474
v -0.167805 -0.171093 0.033379
v -0.171093 -0.171093 0.000000
v -0.167805 -0.171093 -0.033379
v -0.158069 -0.171093 -0.065474
v -0.142258 -0.171093 -0.095054
v -0.120981 -0.171093 -0.120981
v -0.095054 -0.171093 -0.142258
v -0.065474 -0.171093 -0.158069
v -0.033379 -0.171093 -0.167805
v 0.000000 0.171093 0.000000
vn 0.0878 0.4455 -0.8910
vn 0.2599 0.4455 -0.8567
vn 0.4220 0.4455 -0.7896
vn 0.5680 0.4455 -0.6921
vn 0.6921 0.4455 -0.5680
vn 0.7896 0.4455 -0.4220
vn 0.8567 0.4455 -0.2599
vn 0.8910 0.4455 -0.0878
vn 0.8910 0.4455 0.0878
vn 0.8567 0.4455 0.2599
vn 0.7896 0.4455 0.4220
vn 0.6921 0.4455 0.5680
vn 0.5680 0.4455 0.6921
vn 0.4220 0.4455 0.7896
vn 0.2599 0.4455 0.8567
vn 0.0878 0.4455 0.8910
vn -0.0878 0.4455 0.8910
vn -0.2599 0.4455 0.8567
vn -0.4220 0.4455 0.7896
vn -0.5680 0.4455 0.6921
vn -0.6921 0.4455 0.5680
vn -0.7896 0.4455 0.4220
vn -0.8567 0.4455 0.2599
vn -0.8910 0.4455 0.0878
vn -0.8910 0.4455 -0.0878
vn -0.8567 0.4455 -0.2599
vn -0.7896 0.4455 -0.4220
vn -0.6921 0.4455 -0.5680
vn -0.5680 0.4455 -0.6921
vn -0.4220 0.4455 -0.7896
vn -0.0000 -1.0000 -0.0000
vn -0.2599 0.4455 -0.8567
vn -0.0878 0.4455 -0.8910
vt 0.250000 0.490000
vt 0.750000 0.490000
vt 0.296822 0.485388
vt 0.796822 0.485388
vt 0.341844 0.471731
vt 0.841844 0.471731
vt 0.383337 0.449553
vt 0.883337 0.449553
vt 0.419706 0.419706
vt 0.919706 0.419706
vt 0.449553 0.383337
vt 0.949553 0.383337
vt 0.471731 0.341844
vt 0.971731 0.341844
vt 0.485388 0.296822
vt 0.985388 0.296822
vt 0.490000 0.250000
vt 0.990000 0.250000
vt 0.485388 0.203178
vt 0.985388 0.203178
vt 0.471731 0.158156
vt 0.971731 0.158156
vt 0.449553 0.116663
vt 0.949553 0.116663
vt 0.419706 0.080294
vt 0.919706 0.080294
vt 0.383337 0.050447
vt 0.883337 0.050447
vt 0.341844 0.028269
vt 0.841844 0.028269
vt 0.296822 0.014612
vt 0.796822 0.014612
vt 0.250000 0.010000
vt 0.750000 0.010000
vt 0.203178 0.014612
vt 0.703178 0.014612
vt 0.158156 0.028269
vt 0.658156 0.028269
vt 0.116663 0.050447
vt 0.616663 0.050447
vt 0.080294 0.080294
vt 0.580294 0.080294
vt 0.050447 0.116663
vt 0.550447 0.116663
vt 0.028269 0.158156
vt 0.528269 0.158156
vt 0.014612 0.203178
vt 0.514612 0.203178
vt 0.010000 0.250000
vt 0.510000 0.250000
vt 0.014612 0.296822
vt 0.514612 0.296822
vt 0.028269 0.341844
vt 0.528269 0.341844
vt 0.050447 0.383337
vt 0.550447 0.383337
vt 0.080294 0.419706
vt 0.580294 0.419706
vt 0.116663 0.449553
vt 0.616663 0.449553
vt 0.158156 0.471731
vt 0.658156 0.471731
vt 0.203178 0.485388
vt 0.703178 0.485388
vt 0.250000 0.250000
s 0
f 34/66/34 66/130/34 35/68/34
f 35/68/35 66/130/35 36/70/35
f 36/70/36 66/130/36 37/72/36
f 37/72/37 66/130/37 38/74/37
f 38/74/38 66/130/38 39/76/38
f 39/76/39 66/130/39 40/78/39
f 40/78/40 66/130/40 41/80/40
f 41/80/41 66/130/41 42/82/41
f 42/82/42 66/130/42 43/84/42
f 43/84/43 66/130/43 44/86/43
f 44/86/44 66/130/44 45/88/44
f 45/88/45 66/130/45 46/90/45
f 46/90/46 66/130/46 47/92/46
f 47/92/47 66/130/47 48/94/47
f 48/94/48 66/130/48 49/96/48
f 49/96/49 66/130/49 50/98/49
f 50/98/50 66/130/50 51/100/50
f 51/100/51 66/130/51 52/102/51
f 52/102/52 66/130/52 53/104/52
f 53/104/53 66/130/53 54/106/53
f 54/106/54 66/130/54 55/108/54
f 55/108/55 66/130/55 56/110/55
f 56/110/56 66/130/56 57/112/56
f 57/112/57 66/130/57 58/114/57
f 58/114/58 66/130/58 59/116/58
f 59/116/59 66/130/59 60/118/59
f 60/118/60 66/130/60 61/120/60
f 61/120/61 66/130/61 62/122/61
f 62/122/62 66/130/62 63/124/62
f 63/124/63 66/130/63 64/126/63
f 49/97/64 57/113/64 65/129/64
f 64/126/65 66/130/65 65/128/65
f 65/128/66 66/130/66 34/66/66
f 65/129/64 34/67/64 35/69/64
f 35/69/64 36/71/64 37/73/64
f 37/73/64 38/75/64 39/77/64
f 39/77/64 40/79/64 41/81/64
f 41/81/64 42/83/64 43/85/64
f 43/85/64 44/87/64 45/89/64
f 45/89/64 46/91/64 47/93/64
f 47/93/64 48/95/64 49/97/64
f 49/97/64 50/99/64 51/101/64
f 51/101/64 52/103/64 53/105/64
f 53/105/64 54/107/64 55/109/64
f 55/109/64 56/111/64 57/113/64
f 57/113/64 58/115/64 59/117/64
f 59/117/64 60/119/64 61/121/64
f 61/121/64 62/123/64 63/125/64
f 63/125/64 64/127/64 65/129/64
f 65/129/64 35/69/64 37/73/64
f 37/73/64 39/77/64 41/81/64
f 41/81/64 43/85/64 45/89/64
f 45/89/64 47/93/64 49/97/64
f 49/97/64 51/101/64 53/105/64
f 53/105/64 55/109/64 57/113/64
f 57/113/64 59/117/64 61/121/64
f 61/121/64 63/125/64 65/129/64
f 65/129/64 37/73/64 41/81/64
f 41/81/64 45/89/64 49/97/64
f 49/97/64 53/105/64 57/113/64
f 57/113/64 61/121/64 65/129/64
f 65/129/64 41/81/64 49/97/64
o Cube
v -0.530067 -0.130067 0.130067
v -0.530067 0.130067 0.130067
v -0.530067 -0.130067 -0.130067
v -0.530067 0.130067 -0.130067
v -0.269932 -0.130067 0.130067
v -0.269932 0.130067 0.130067
v -0.269932 -0.130067 -0.130067
v -0.269932 0.130067 -0.130067
vn -1.0000 -0.0000 -0.0000
vn -0.0000 -0.0000 -1.0000
vn 1.0000 -0.0000 -0.0000
vn -0.0000 -0.0000 1.0000
vn -0.0000 -1.0000 -0.0000
vn -0.0000 1.0000 -0.0000
vt 0.375000 0.000000
vt 0.375000 1.000000
vt 0.125000 0.750000
vt 0.625000 0.000000
vt 0.625000 1.000000
vt 0.875000 0.750000
vt 0.125000 0.500000
vt 0.375000 0.250000
vt 0.625000 0.250000
vt 0.875000 0.500000
vt 0.375000 0.750000
vt 0.625000 0.750000
vt 0.375000 0.500000
vt 0.625000 0.500000
s 0
f 68/134/67 69/138/67 67/131/67
f 70/139/68 73/143/68 69/138/68
f 74/144/69 71/141/69 73/143/69
f 72/142/70 67/132/70 71/141/70
f 73/143/71 67/133/71 69/137/71
f 70/140/72 72/142/72 74/144/72
f 68/134/67 70/139/67 69/138/67
f 70/139/68 74/144/68 73/143/68
f 74/144/69 72/142/69 71/141/69
f 72/142/70 68/135/70 67/132/70
f 73/143/71 71/141/71 67/133/71
f 70/140/72 68/136/72 72/142/72
